<svg width="333" height="67" viewBox="0 0 333 67" fill="none" xmlns="http://www.w3.org/2000/svg">
<path d="M33.6863 66.303C52.2907 66.303 67.3724 51.4606 67.3724 33.1516C67.3724 14.8425 52.2907 0 33.6863 0C15.0819 0 0 14.8425 0 33.1516C0 51.4606 15.0819 66.303 33.6863 66.303Z" fill="#769B3E"/>
<path d="M37.366 65.2336V64.8999C37.366 59.9405 37.366 54.981 37.366 50.0126C37.4095 45.7636 36.2714 41.5862 34.0786 37.9463C31.8858 34.3065 28.7245 31.3475 24.9477 29.3994C22.4243 28.0741 19.668 27.2504 16.8311 26.9738C12.6214 26.5248 8.37005 27.2619 4.55724 29.1018L4.27762 29.2281C4.42191 28.4616 4.54813 27.7402 4.69243 27.0279C4.78261 26.568 4.90896 26.1262 5.00816 25.6753C5.02308 25.5932 5.06054 25.5169 5.11627 25.4548C5.17199 25.3927 5.24389 25.3473 5.32389 25.3236C7.7883 24.3907 10.3842 23.8521 13.0164 23.7276C14.2248 23.6825 15.4423 23.7276 16.6237 23.7276C16.6693 23.7353 16.7162 23.7336 16.7611 23.7228C16.8061 23.7119 16.8482 23.6921 16.8853 23.6645C17.4895 22.907 18.0938 22.1496 18.689 21.3471C14.4802 20.7165 10.1841 21.0244 6.10838 22.2488C6.15333 22.1042 6.20749 21.9626 6.27065 21.825C6.78469 20.788 7.29892 19.76 7.80395 18.7321C7.8373 18.6591 7.88871 18.596 7.95345 18.5486C8.01818 18.5013 8.094 18.4713 8.17362 18.4616C9.95778 18.1156 11.7678 17.9195 13.5847 17.8755C16.1251 17.801 18.6653 18.0311 21.151 18.5608C21.2043 18.5714 21.2592 18.5705 21.3122 18.5581C21.3651 18.5456 21.4147 18.5219 21.4577 18.4886C22.1521 17.8755 22.8375 17.2533 23.5139 16.6311C23.5613 16.5883 23.6063 16.5432 23.6491 16.4958C19.2141 15.3135 14.5888 15.0223 10.0405 15.6392C10.2389 15.3957 10.374 15.1884 10.5454 14.999C11.357 14.0973 12.1777 13.1956 12.9983 12.348C13.0892 12.2634 13.208 12.2153 13.3321 12.2127C17.8278 12.0603 22.3137 12.7263 26.571 14.1784C26.6386 14.2079 26.7128 14.2185 26.7859 14.209C26.859 14.1994 26.9281 14.1702 26.9859 14.1243C27.7434 13.6194 28.51 13.1324 29.2675 12.6455L29.511 12.4832C25.3268 10.795 20.8874 9.82554 16.3802 9.61576C17.0295 8.71404 22.8916 5.83756 24.8576 5.47687L22.3595 7.09996C22.7473 7.19013 23.0719 7.24424 23.3966 7.32539L25.6692 7.8574C25.8135 7.8872 25.9637 7.86483 26.093 7.79427C28.2545 6.48003 30.5126 5.33157 32.8478 4.35875C32.9528 4.31058 33.0662 4.28302 33.1816 4.27759C35.5819 4.27724 37.9726 4.58021 40.297 5.1793C39.0976 5.54901 37.9252 5.88264 36.7709 6.2794C35.6165 6.67615 34.4621 7.13602 33.3258 7.62294C32.1895 8.10987 31.1073 8.66895 29.9981 9.19195V9.2731L30.8999 9.63378C31.5583 9.92233 32.2075 10.2199 32.8659 10.5355C32.985 10.5805 33.1166 10.5805 33.2358 10.5355C36.288 9.09946 39.4999 8.03096 42.8041 7.35244C43.5346 7.19915 44.2653 7.0729 44.9958 6.94666C45.0809 6.9197 45.172 6.9197 45.2571 6.94666C46.8342 7.6734 48.3433 8.5395 49.7663 9.5346V9.57968C37.8891 10.3461 28.1223 15.3236 20.4026 24.44L20.8445 24.5482C21.5389 24.7556 22.2332 24.9539 22.9186 25.1793C22.9901 25.2139 23.072 25.2211 23.1484 25.1995C23.2249 25.1779 23.2908 25.129 23.3336 25.0621C29.0385 18.5293 36.8239 14.1658 45.3745 12.7086C47.6659 12.3274 49.9869 12.1524 52.3096 12.1856C52.4897 12.1721 52.6706 12.1721 52.8507 12.1856C52.9485 12.1922 53.0425 12.2266 53.1213 12.2848C54.1688 13.2899 55.1395 14.3719 56.0252 15.522C44.3194 14.3197 34.3811 17.9656 26.2104 26.4598L28.5821 27.8304C28.9068 27.4968 29.2406 27.127 29.6013 26.7844C33.9573 22.5747 39.4329 19.7074 45.3745 18.5247C49.5115 17.6921 53.7729 17.6921 57.9099 18.5247C57.965 18.5345 58.0175 18.5556 58.0641 18.5866C58.1106 18.6176 58.1503 18.6579 58.1805 18.705C58.7577 19.8502 59.3258 21.0044 59.8939 22.1586V22.2217C48.9156 19.3903 39.2959 21.8791 31.0351 29.6879C31.4139 30.0216 31.7477 30.2921 32.0543 30.5896C32.3609 30.8872 32.6315 31.2118 32.9561 31.4914C33.5333 30.9593 34.0384 30.4815 34.5614 30.0216C38.0956 26.9602 42.3876 24.9048 46.9886 24.0704C51.5895 23.236 56.3304 23.6532 60.7147 25.2785C60.8012 25.3011 60.8793 25.3479 60.94 25.4134C61.0007 25.4789 61.0414 25.5604 61.0573 25.6483C61.2738 26.7393 61.5083 27.8214 61.7337 28.9125C61.7391 28.9995 61.7391 29.0869 61.7337 29.174C57.3733 27.0268 52.443 26.322 47.6555 27.1617C42.868 28.0014 38.4716 30.3419 35.1024 33.8448L36.6176 36.036C36.9423 35.7024 37.2759 35.3597 37.6186 35.0351C40.7913 32.0151 44.8559 30.1022 49.2055 29.5821C53.5551 29.0621 57.9563 29.9627 61.7518 32.1496C61.8408 32.1863 61.9156 32.2511 61.9645 32.3341C62.0133 32.4171 62.0336 32.5138 62.0224 32.6095C61.9683 33.7006 61.9413 34.7826 61.9052 35.8737C61.9021 35.9248 61.9021 35.9759 61.9052 36.027L61.0034 35.3868C57.7659 33.2705 53.9052 32.3169 50.0545 32.6822C46.2039 33.0476 42.5918 34.7102 39.8102 37.3976C39.3052 37.8755 38.8542 38.4165 38.3942 38.9395C38.3621 38.9812 38.3398 39.0296 38.3288 39.0811C38.3179 39.1326 38.3186 39.1859 38.3311 39.2371C38.6647 40.1388 39.0166 41.1036 39.3683 42.0414C39.3796 42.0751 39.3979 42.1059 39.4222 42.1316C39.774 41.6447 40.0988 41.1487 40.4775 40.6889C41.695 39.1571 43.2101 37.8878 44.9317 36.9578C46.6533 36.0277 48.5456 35.4561 50.4942 35.2775C52.4428 35.0988 54.4074 35.3168 56.2694 35.9183C58.1314 36.5198 59.8522 37.4924 61.3279 38.7772C61.393 38.8151 61.4425 38.875 61.4673 38.9461C61.4921 39.0172 61.4908 39.0948 61.4633 39.165C61.1748 40.265 60.895 41.3651 60.6245 42.4111L59.4972 41.4102C57.8892 39.9299 55.886 38.948 53.7308 38.5839C51.5756 38.2197 49.3611 38.4888 47.3558 39.3585C45.3506 40.2283 43.6408 41.6613 42.4342 43.4837C41.2277 45.3061 40.5761 47.4394 40.5586 49.6249C40.5586 54.5122 40.5586 59.4025 40.5586 64.2958C40.5586 64.5212 40.5136 64.6294 40.2701 64.6745C39.3683 64.8278 38.5385 65.0081 37.6818 65.1795C37.5777 65.2035 37.4722 65.2216 37.366 65.2336Z" fill="#004138"/>
<path d="M42.0141 64.1461C42.0141 63.7129 42.0141 63.2979 42.0141 62.8828C42.0141 62.8106 42.1491 62.7113 42.2391 62.6842C50.055 60.2302 56.5831 54.773 60.3955 47.5065C61.9943 44.4779 63.063 41.1969 63.5551 37.8061C64.4979 31.4816 63.4553 25.0198 60.5715 19.3158C57.6878 13.6118 53.1057 8.94809 47.4602 5.97073C44.1512 4.19261 40.5335 3.06546 36.8021 2.65004C29.7498 1.81437 22.6263 3.44838 16.6383 7.2752C10.6504 11.102 6.16624 16.8863 3.94582 23.648C2.77182 27.1775 2.26812 30.8962 2.46062 34.6117C2.74619 40.9475 4.97394 47.0409 8.84005 52.0614C12.7062 57.0818 18.0226 60.785 24.0647 62.6662C24.1016 62.6717 24.1368 62.6845 24.1687 62.7039C24.2005 62.7233 24.2282 62.7489 24.25 62.7791C24.2718 62.8094 24.2873 62.8438 24.2957 62.8801C24.3041 62.9165 24.3052 62.9543 24.2988 62.991C24.2988 63.361 24.2988 63.731 24.2988 64.1641C18.2456 62.4178 12.8385 58.9254 8.75061 54.1215C4.66271 49.3177 2.07453 43.4147 1.30838 37.1474C0.561478 31.0471 1.57385 24.8601 4.2258 19.3188C6.87775 13.7775 11.0583 9.11401 16.2722 5.8804C21.486 2.6468 27.515 0.978552 33.6453 1.07315C39.7756 1.16774 45.7505 3.02123 50.8626 6.41417C55.9747 9.80711 60.01 14.5974 62.4905 20.2179C64.9711 25.8384 65.7931 32.0537 64.8592 38.128C63.9254 44.2023 61.2749 49.8811 57.2214 54.4922C53.1679 59.1032 47.881 62.4534 41.987 64.1461H42.0141Z" fill="#004138"/>
<path d="M4.38597 36.3909C4.38597 35.8087 4.30392 35.2442 4.28571 34.6797C4.2675 34.1152 4.28571 33.5684 4.28571 33.0039C4.2805 32.935 4.29689 32.8661 4.33262 32.8064C4.36835 32.7466 4.42174 32.6986 4.48601 32.6687C6.7726 31.3701 9.30005 30.519 11.9251 30.1637C15.8464 29.5815 19.8579 30.1595 23.4346 31.8219C26.4304 33.1412 29.0472 35.1509 31.0567 37.6755C33.0661 40.2001 34.4069 43.1629 34.9621 46.305C35.1874 47.4683 35.2973 48.6497 35.29 49.8332V65.2337H32.0666V64.8632C32.0666 59.8885 32.0666 54.9138 32.0666 49.9302C32.0972 47.6918 31.6541 45.471 30.7646 43.4048C29.875 41.3386 28.5581 39.4709 26.8947 37.9168C24.1091 35.1918 20.4135 33.5159 16.469 33.1891C12.2309 32.7596 7.98136 33.8934 4.56804 36.3644L4.47689 36.4174L4.38597 36.3909Z" fill="#004138"/>
<path d="M28.8738 65.2336C28.4896 65.1705 28.1403 65.1165 27.7998 65.0445L25.9834 64.6212C25.8437 64.6212 25.7826 64.5312 25.7913 64.3871C25.7957 64.3151 25.7957 64.243 25.7913 64.171C25.7913 59.4045 25.7913 54.638 25.7913 49.8715C25.8026 47.5515 25.1211 45.2842 23.8396 43.3774C22.558 41.4706 20.7385 40.0167 18.6279 39.2132C16.5174 38.4097 14.2182 38.2955 12.0425 38.8862C9.86687 39.4768 7.92009 40.7436 6.46678 42.5146L6.25722 42.7578C6.03891 42.0014 5.82937 41.299 5.63726 40.5876C5.53248 40.1914 5.46257 39.7952 5.36651 39.399C5.34187 39.3283 5.34058 39.2511 5.36267 39.1795C5.38477 39.1079 5.42914 39.0458 5.48888 39.0028C7.1174 37.4691 9.088 36.3741 11.2258 35.8151C13.5217 35.1522 15.9454 35.1167 18.2587 35.7119C20.572 36.3071 22.6954 37.5125 24.4203 39.2099C26.9284 41.5598 28.487 44.7969 28.7864 48.2777C28.8462 48.9001 28.8754 49.5252 28.8738 50.1506C28.8738 55.0492 28.8738 59.9478 28.8738 64.8464V65.2336Z" fill="#004138"/>
<path d="M105.429 25.6722C105.105 24.4319 104.604 23.2471 103.942 22.1555C103.3 21.0912 102.508 20.1295 101.591 19.3016C100.68 18.4958 99.6443 17.8488 98.5271 17.3867C97.3803 16.9211 96.157 16.6836 94.9229 16.6871C93.2773 16.658 91.6538 17.0774 90.2194 17.9023C88.8487 18.696 87.6672 19.7901 86.7595 21.106C85.809 22.4802 85.0845 24.004 84.6149 25.6169C84.1209 27.295 83.8719 29.0384 83.876 30.7907C83.8627 32.5804 84.1274 34.3608 84.66 36.0658C85.1367 37.6228 85.8946 39.0748 86.8946 40.3466C87.8558 41.5453 89.053 42.5239 90.4086 43.2189C91.8391 43.9308 93.4131 44.2902 95.0041 44.2684C96.2804 44.2814 97.5461 44.0309 98.7253 43.5319C100.982 42.5856 102.878 40.9193 104.132 38.7816C104.737 37.7777 105.17 36.6755 105.411 35.5226H105.871L105.754 44.1119H105.294C105.004 43.6873 104.685 43.2842 104.339 42.9059C104.006 42.5377 103.78 42.3535 103.654 42.3535C103.41 42.4627 103.18 42.6018 102.97 42.7678C102.396 43.1267 101.793 43.4347 101.167 43.6884C100.262 44.0544 99.3273 44.3409 98.374 44.5446C97.1294 44.8072 95.8605 44.9306 94.5896 44.9128C92.4063 44.9452 90.2335 44.5965 88.165 43.8818C86.3598 43.2556 84.7004 42.2559 83.2904 40.945C81.9553 39.6801 80.9041 38.135 80.2088 36.4156C79.0408 33.4561 78.8198 30.1947 79.5779 27.0991C79.7602 26.3745 79.992 25.6639 80.2718 24.9725C80.5804 24.1907 80.9574 23.4389 81.3981 22.7262C81.9652 21.8047 82.6333 20.9523 83.3894 20.1854C84.2191 19.3447 85.1593 18.6259 86.1827 18.0496C87.3204 17.4116 88.531 16.92 89.7869 16.5858C91.2604 16.2122 92.7741 16.0297 94.2922 16.0426C95.6409 16.0239 96.9868 16.1691 98.3019 16.4753C99.2825 16.7033 100.244 17.0111 101.176 17.3959C101.804 17.6448 102.407 17.953 102.979 18.3165C103.191 18.4857 103.42 18.6308 103.663 18.7492C103.774 18.7204 103.874 18.6596 103.952 18.5743C104.114 18.4406 104.267 18.2961 104.411 18.1416C104.593 17.9586 104.765 17.765 104.925 17.5616C105.106 17.3416 105.274 17.1111 105.429 16.8712H105.844V25.6261L105.429 25.6722Z" fill="white"/>
<path d="M159.264 41.5152C159.264 40.7416 159.8 39.0947 160.873 36.5744L161.797 34.3624H171.773L174.122 39.9831C174.551 40.8518 174.883 41.7637 175.111 42.7028C175.122 42.9566 175.06 43.2083 174.933 43.4294C174.805 43.6505 174.617 43.8322 174.39 43.9539C173.603 44.3377 172.724 44.5038 171.847 44.4343V44.9148H182.868V44.4343C182.066 44.3675 181.299 44.0783 180.658 43.6003C180.138 43.0895 179.743 42.4695 179.503 41.7872L178.217 38.9133L168.87 17.1104H168.075L159.939 36.1483C159.347 37.5172 159.014 38.2969 158.95 38.4963C158.436 40.0011 157.701 41.4243 156.768 42.7209C155.677 43.972 155.372 44.4344 153.994 44.5341V44.9058H162.315V44.5341C161.487 44.509 160.689 44.2299 160.031 43.7363C159.753 43.4385 159.541 43.0873 159.409 42.7049C159.277 42.3225 159.228 41.9174 159.264 41.5152ZM166.827 22.4772L171.45 33.5827H162.13L166.827 22.4772Z" fill="white"/>
<path d="M226.447 41.5152C226.447 40.7416 226.963 39.0947 227.995 36.5744L228.885 34.3624H238.503L240.763 39.9831C241.181 40.8498 241.5 41.7623 241.715 42.7028C241.725 42.9566 241.666 43.2083 241.543 43.4294C241.421 43.6505 241.24 43.8322 241.021 43.9539C240.267 44.3383 239.423 44.5044 238.583 44.4343V44.9148H249.171V44.4343C248.399 44.3675 247.661 44.0783 247.044 43.6003C246.544 43.0895 246.164 42.4695 245.932 41.7872L244.695 38.9133L235.7 17.1104H234.926L227.097 36.1483C226.527 37.5172 226.207 38.2969 226.144 38.4963C225.644 40.0002 224.934 41.423 224.036 42.7209C222.986 43.972 222.692 44.4344 221.366 44.5341V44.9058H229.374V44.5341C228.575 44.5103 227.803 44.2312 227.168 43.7363C226.903 43.437 226.703 43.0851 226.579 42.7028C226.455 42.3205 226.41 41.9161 226.447 41.5152ZM233.725 22.4772L238.174 33.5827H229.205L233.725 22.4772Z" fill="white"/>
<path d="M160.043 27.729C159.748 28.4744 159.33 29.1662 158.804 29.776C158.293 30.3715 157.691 30.8842 157.018 31.2953C156.364 31.7097 155.666 32.0544 154.937 32.3234C154.174 32.5858 153.388 32.7776 152.588 32.8965C151.747 33.033 150.905 33.124 150.054 33.1877C149.203 33.2514 148.371 33.2878 147.557 33.2878H145.439V36.9269C145.439 37.3636 145.439 37.773 145.439 38.1369C145.439 38.5008 145.439 38.9193 145.439 39.356C145.439 40.187 145.467 40.8966 145.522 41.4849C145.526 42.0035 145.676 42.5108 145.957 42.9497C146.271 43.3765 146.687 43.7203 147.168 43.9505C147.951 44.3297 148.812 44.5288 149.684 44.5327V44.9148H137.124V44.5327C137.754 44.4335 138.373 44.2782 138.974 44.0687C139.523 43.9012 140.013 43.5861 140.389 43.1589C140.546 42.9548 140.653 42.7184 140.703 42.4675C140.791 42.1241 140.85 41.7742 140.879 41.4213C140.879 41.0391 140.953 40.6206 140.981 40.1839C141.009 39.7472 140.981 39.3287 140.981 38.9102C140.981 38.4917 140.981 38.0641 140.981 37.4455C140.981 36.8268 140.981 36.1536 141.027 35.4167C141.074 34.6797 141.027 33.9337 141.027 33.1604V23.362C141.027 22.898 141.027 22.4522 141.027 21.9518C141.027 21.4514 140.981 21.042 140.944 20.6053C140.912 20.2125 140.847 19.823 140.75 19.4408C140.694 19.1649 140.566 18.9078 140.38 18.6948C139.971 18.2717 139.443 17.98 138.863 17.8578C138.253 17.7213 137.586 17.5939 136.884 17.4939V17.1118H137.808H139.557H141.73C142.516 17.1118 143.293 17.1118 144.07 17.1118H146.244H148.01C149.555 17.0981 151.1 17.1832 152.634 17.3665C153.956 17.5295 155.234 17.9402 156.399 18.5765C157.564 19.2027 158.55 20.1068 159.266 21.2058C160.042 22.4025 160.438 23.7991 160.404 25.2179C160.442 26.0696 160.319 26.9209 160.043 27.729ZM155.113 20.9692C154.565 20.1035 153.828 19.3675 152.957 18.8139C152.085 18.2604 151.101 17.9028 150.073 17.7668C149.344 17.6591 148.608 17.6074 147.871 17.6121C147.445 17.6065 147.019 17.6248 146.595 17.6667L145.874 17.7668C145.854 17.9034 145.82 18.0375 145.772 18.1671C145.73 18.3133 145.699 18.4623 145.679 18.6129C145.679 18.7949 145.624 19.0405 145.596 19.368C145.568 19.6955 145.596 20.1413 145.522 20.7418C145.522 21.6516 145.476 22.7342 145.457 24.017C145.439 25.2998 145.457 26.5644 145.457 27.8017V32.7419C146.53 32.7419 147.538 32.7419 148.482 32.6509C149.377 32.5971 150.261 32.4226 151.109 32.1323C152.671 31.6435 154.025 30.6578 154.956 29.3302C155.844 28.0359 156.312 26.5066 156.297 24.945C156.316 23.533 155.904 22.148 155.113 20.9692Z" fill="white"/>
<path d="M183.937 44.9149V44.5297C184.57 44.4345 185.189 44.2652 185.781 44.0253C186.329 43.7982 186.818 43.4501 187.21 43.0073C187.358 42.8128 187.46 42.5868 187.505 42.3469C187.579 42.0143 187.631 41.6773 187.662 41.3381C187.662 40.9437 187.726 40.5402 187.736 40.1091C187.745 39.6781 187.736 39.2654 187.736 38.8435C187.736 38.4216 187.736 37.9906 187.736 37.3669C187.736 36.7433 187.736 36.0646 187.736 35.3217C187.736 34.5789 187.736 33.8268 187.736 33.0473V21.7574C187.736 21.2897 187.736 20.8403 187.68 20.4551C187.643 20.0877 187.581 19.7231 187.496 19.3637C187.444 19.088 187.323 18.8295 187.146 18.6117C186.791 18.1873 186.325 17.8697 185.8 17.6946C185.204 17.4833 184.585 17.3447 183.956 17.2818V16.8967H195.664V17.2818C195.062 17.3731 194.47 17.5173 193.894 17.7129C193.266 17.9236 192.746 18.3716 192.446 18.9602C192.198 19.4816 192.072 20.0524 192.078 20.6294C192.078 21.308 192.078 21.9409 192.022 22.537C191.967 23.1331 192.022 23.8301 192.022 24.463C192.022 25.0958 192.022 25.7377 192.022 26.3889V39.4304C192.022 40.1825 192.022 40.907 192.022 41.6132C191.998 42.1283 192.119 42.64 192.373 43.0898C192.748 43.5738 193.267 43.927 193.857 44.0986C194.452 44.3147 195.071 44.4594 195.701 44.5297V44.9149H183.937ZM188.086 15.3375L187.653 15.0624L192.778 8.55997C193.243 8.52829 193.704 8.65441 194.087 8.91766C194.342 9.09634 194.56 9.32021 194.733 9.57799V9.77058L188.086 15.3375Z" fill="white"/>
<path d="M222.062 39.809C221.8 40.5232 221.426 41.1901 220.954 41.784C220.512 42.335 219.997 42.822 219.424 43.2311C218.91 43.6113 218.346 43.9176 217.749 44.1412C216.702 44.5194 215.608 44.7432 214.498 44.8056C213.301 44.8784 212.139 44.9148 211.022 44.9148H197.84V44.5326C198.456 44.4318 199.06 44.264 199.64 44.032C200.174 43.8248 200.652 43.4944 201.036 43.0673C201.184 42.8637 201.288 42.6312 201.342 42.3847C201.429 42.0488 201.498 41.7085 201.549 41.3653C201.612 40.974 201.658 40.5735 201.685 40.1458C201.712 39.718 201.685 39.3085 201.685 38.8898C201.685 38.4712 201.685 38.0434 201.685 37.4245C201.685 36.8056 201.685 36.1321 201.685 35.3949C201.685 34.6577 201.685 33.9115 201.685 33.1378V27.1492C201.685 26.585 201.685 26.0025 201.685 25.4109C201.685 24.8193 201.685 24.1367 201.685 23.3631C201.685 22.899 201.685 22.453 201.685 21.9524C201.667 21.4954 201.624 21.0397 201.558 20.5873C201.503 20.1886 201.425 19.7936 201.324 19.4041C201.27 19.1254 201.146 18.8653 200.964 18.6487C200.647 18.2879 200.253 18.0047 199.812 17.8205C199.29 17.6533 198.753 17.5435 198.209 17.4929V17.1106H211.085C212.013 17.1061 212.939 17.1639 213.859 17.2835C214.728 17.3923 215.58 17.6062 216.398 17.9206C217.646 18.3674 218.755 19.1398 219.613 20.1595C220.478 21.2368 220.926 22.5954 220.874 23.982C220.903 24.7441 220.773 25.5039 220.494 26.2124C220.215 26.9209 219.792 27.5625 219.253 28.0958C218.072 29.1894 216.607 29.9189 215.029 30.1981V30.3529C215.955 30.4624 216.863 30.6918 217.731 31.0355C218.597 31.3661 219.404 31.8397 220.117 32.437C220.808 33.0241 221.38 33.7412 221.801 34.5485C222.228 35.3931 222.445 36.3304 222.431 37.2789C222.462 38.138 222.336 38.9954 222.062 39.809ZM215.588 20.5327C215.002 19.5904 214.157 18.8409 213.157 18.3757C211.761 17.8117 210.264 17.5482 208.762 17.6021C208.278 17.6011 207.794 17.6254 207.312 17.6749C206.975 17.7109 206.64 17.7748 206.313 17.866C206.313 18.0207 206.313 18.1664 206.241 18.2938C206.21 18.4529 206.192 18.6142 206.187 18.7761C206.187 18.9673 206.187 19.213 206.142 19.4951C206.097 19.7772 206.142 20.1504 206.088 20.6146C206.088 21.5186 206.07 22.5106 206.034 23.5907C206.034 24.6646 206.034 25.7022 206.034 26.676V30.3893H208.168C208.753 30.3893 209.23 30.3893 209.582 30.3438C211.503 30.3628 213.363 29.6626 214.804 28.3779C215.388 27.808 215.849 27.1228 216.159 26.3649C216.469 25.6071 216.62 24.7928 216.605 23.9729C216.61 22.7497 216.256 21.5523 215.588 20.5327ZM217.686 35.6225C217.446 34.9698 217.112 34.3564 216.695 33.8022C216.274 33.2495 215.77 32.7673 215.201 32.3734C214.616 31.981 213.979 31.6746 213.31 31.4632C212.77 31.2876 212.215 31.1656 211.653 31.0992C211.01 31.029 210.363 30.9956 209.717 30.9991H206.016V35.8318C206.016 36.5508 206.016 37.2152 206.016 37.8159C206.016 38.4165 206.016 38.9444 206.016 39.3813C206.016 40.3642 206.088 41.2015 206.151 41.7931C206.187 42.3563 206.377 42.8984 206.7 43.3585C206.983 43.6792 207.338 43.9259 207.736 44.0775C208.372 44.2985 209.044 44.3972 209.717 44.3687C210.523 44.3631 211.329 44.3115 212.13 44.214C213.012 44.1016 213.867 43.8271 214.651 43.404C215.667 42.8888 216.525 42.1058 217.137 41.1378C217.751 40.1228 218.063 38.9507 218.037 37.7613C218.039 37.0303 217.908 36.3052 217.65 35.6225H217.686Z" fill="white"/>
<path d="M135.686 36.5385C134.944 38.2093 133.878 39.7225 132.548 40.9941C131.221 42.2611 129.648 43.2522 127.922 43.9081C124.335 45.2504 120.37 45.2504 116.783 43.9081C115.097 43.2639 113.556 42.3011 112.248 41.0743C110.92 39.8327 109.864 38.3377 109.145 36.681C108.372 34.9082 107.985 32.9956 108.011 31.0669C107.98 29.0575 108.386 27.0647 109.2 25.2211C109.955 23.5577 111.051 22.0651 112.42 20.8368C113.8 19.6221 115.408 18.6837 117.155 18.0743C118.988 17.4279 120.922 17.1021 122.869 17.1119C124.885 17.0829 126.884 17.4684 128.738 18.2436C130.403 18.9543 131.903 19.9913 133.147 21.2913C134.361 22.5827 135.304 24.0968 135.922 25.7469C136.561 27.4132 136.887 29.1795 136.884 30.96C136.884 32.8811 136.476 34.7811 135.686 36.5385ZM131.468 26.3261C131.093 24.8251 130.481 23.3908 129.654 22.0754C128.886 20.8407 127.855 19.783 126.634 18.9743C125.365 18.1617 123.875 17.7454 122.361 17.7802C120.83 17.7429 119.322 18.159 118.035 18.9743C116.81 19.767 115.784 20.821 115.032 22.0576C114.217 23.3857 113.632 24.8371 113.3 26.3529C112.927 27.9458 112.738 29.575 112.737 31.2095C112.733 32.8798 112.941 34.5441 113.354 36.1642C113.713 37.6539 114.327 39.073 115.168 40.3614C115.944 41.546 116.983 42.5423 118.207 43.2754C119.493 44.024 120.967 44.4037 122.461 44.3715C123.961 44.4055 125.434 43.9821 126.679 43.1595C127.886 42.34 128.9 41.2766 129.654 40.0406C130.482 38.7101 131.094 37.261 131.468 35.7453C131.864 34.186 132.065 32.585 132.067 30.9778C132.059 29.4209 131.858 27.8708 131.468 26.3618V26.3261Z" fill="white"/>
<path d="M82.344 54.5396H84.4828V64.1642H82.344V54.5396Z" fill="#769B3E"/>
<path d="M100.524 54.5396V64.1642H98.7492L94.0967 58.3254V64.1642H91.9687V54.5396H93.7521L98.3872 60.3872V54.5396H100.524Z" fill="#769B3E"/>
<path d="M117.634 54.5396L113.398 64.1642H111.158L106.94 54.5396H109.388L112.36 61.4181L115.385 54.5396H117.634Z" fill="#769B3E"/>
<path d="M130.467 62.3851V64.1642H122.981V54.5396H130.298V56.3186H125.212V58.4179H129.673V60.1524H125.212V62.3762L130.467 62.3851Z" fill="#769B3E"/>
<path d="M138.49 63.8958C137.913 63.7431 137.368 63.4809 136.884 63.1228L137.591 61.4994C138.013 61.8083 138.479 62.0461 138.973 62.2037C139.485 62.3806 140.022 62.4706 140.563 62.47C141.017 62.5013 141.471 62.4064 141.878 62.1951C142.003 62.1227 142.108 62.0183 142.182 61.8919C142.256 61.7655 142.298 61.6214 142.302 61.4736C142.304 61.3683 142.283 61.264 142.24 61.1687C142.196 61.0734 142.132 60.9896 142.053 60.9238C141.863 60.7644 141.646 60.6448 141.412 60.5717C141.145 60.4772 140.796 60.3827 140.346 60.271C139.783 60.1374 139.227 59.9711 138.681 59.7728C138.242 59.5903 137.855 59.2946 137.558 58.9139C137.231 58.4979 137.065 57.9715 137.092 57.4365C137.086 56.9137 137.234 56.4015 137.516 55.9676C137.834 55.4972 138.28 55.1352 138.798 54.9283C139.461 54.6522 140.173 54.5206 140.887 54.5418C141.448 54.543 142.007 54.6122 142.552 54.7479C143.061 54.875 143.547 55.0836 143.992 55.3664L143.351 56.9984C142.596 56.5322 141.734 56.2803 140.854 56.2683C140.406 56.2332 139.957 56.3347 139.564 56.5603C139.433 56.6381 139.325 56.7512 139.252 56.8873C139.179 57.0235 139.143 57.1777 139.148 57.3334C139.146 57.4882 139.192 57.6394 139.279 57.7658C139.366 57.8922 139.489 57.9873 139.63 58.0377C140.105 58.2437 140.599 58.3991 141.104 58.5016C141.669 58.6337 142.225 58.8029 142.769 59.0083C143.2 59.1723 143.586 59.4438 143.892 59.7986C144.224 60.2125 144.393 60.7396 144.367 61.276C144.369 61.7967 144.218 62.3058 143.934 62.7363C143.606 63.2031 143.155 63.5637 142.635 63.7756C141.969 64.051 141.255 64.1825 140.538 64.1621C139.846 64.173 139.157 64.0833 138.49 63.8958Z" fill="#769B3E"/>
<path d="M152.851 56.3252H149.716V54.5396H158.272V56.3252H155.137V64.1642H152.851V56.3252Z" fill="#769B3E"/>
<path d="M260.957 33.1415V12.6449C260.936 12.531 260.936 12.4164 260.957 12.3025C261.04 12.1059 260.652 11.7634 261.456 11.7634C262.26 11.7634 261.941 12.1059 261.941 12.3025C261.941 26.1952 261.941 40.09 261.941 53.9869C261.955 54.101 261.955 54.2153 261.941 54.3293C261.941 54.3579 261.929 54.3862 261.904 54.4125C261.879 54.4387 261.843 54.4624 261.798 54.482C261.752 54.5016 261.698 54.5168 261.64 54.5265C261.581 54.5362 261.518 54.5404 261.456 54.5386C261.393 54.5414 261.33 54.5379 261.27 54.5285C261.21 54.5192 261.156 54.5041 261.11 54.4843C261.064 54.4644 261.027 54.4404 261.003 54.4137C260.979 54.387 260.968 54.3582 260.971 54.3293C260.971 54.1581 260.971 53.9869 260.971 53.8157L260.957 33.1415Z" fill="white"/>
<g clip-path="url(#clip0_67_1267)">
<rect width="51.3313" height="45.1094" transform="translate(281.253 10.4995)" fill="#004139"/>
<path d="M318.641 45.3442H324.454C326.629 45.3442 328.141 44.3776 328.141 42.3983C328.141 40.419 326.629 39.4524 324.454 39.4524H318.641V45.3442ZM318.641 55.6089H326.392C330.505 55.6089 332.632 53.5375 332.632 49.5329V45.3442H332.49C331.308 48.8425 328.236 49.9012 324.596 49.9012H318.83C318.688 49.9012 318.641 49.9472 318.641 50.0853V55.6089ZM307.722 42.3983L313.678 48.0139V36.7826L307.722 42.3983ZM287.492 55.6089H313.678V54.32C313.678 52.0646 314.481 50.7757 316.325 50.0853V49.9472H308.998C308.62 49.9472 308.478 49.9012 308.195 49.625L304.366 45.7585L300.396 49.671C300.207 49.8551 300.065 49.9472 299.687 49.9472H293.779C293.448 49.9472 293.448 49.7631 293.637 49.5789L301.199 42.4443L293.495 35.1716C293.306 34.9874 293.353 34.8033 293.684 34.8033H299.64C299.97 34.8033 300.112 34.8494 300.301 35.0795L304.461 39.1301L308.384 35.0795C308.573 34.8954 308.715 34.8033 308.998 34.8033H324.549C328.141 34.8033 331.308 35.9541 332.49 39.4524H332.632V16.5755C332.632 12.5709 330.505 10.4995 326.392 10.4995H287.492C283.38 10.4995 281.253 12.5709 281.253 16.5755V49.5789C281.253 53.5375 283.38 55.6089 287.492 55.6089Z" fill="white"/>
</g>
<defs>
<clipPath id="clip0_67_1267">
<rect width="51.3313" height="45.1094" fill="white" transform="translate(281.253 10.4995)"/>
</clipPath>
</defs>
</svg>
